<?xml version="1.0" encoding="UTF-8"?>
<svg width="11.1746705px" height="10.9802364px" viewBox="0 0 11.1746705 10.9802364" version="1.1" xmlns="http://www.w3.org/2000/svg" xmlns:xlink="http://www.w3.org/1999/xlink">
    <title>cross</title>
    <g id="cross" stroke="none" stroke-width="1" fill="none" fill-rule="evenodd">
        <path d="M9.79607372,4.92841158 L8.28607372,4.41841158 C8.15475481,4.36706408 8.08505834,4.2233151 8.12607372,4.08841158 L8.63607372,2.60841158 C8.96687095,1.61061146 8.46877066,0.527024873 7.49607372,0.128411581 C7.01250025,-0.0579281663 6.47413585,-0.0408739077 6.0033258,0.175698714 C5.53251575,0.392271336 5.16924701,0.789968326 4.99607372,1.27841158 L4.45607372,2.84841158 C4.43591026,2.91247843 4.38982324,2.96516467 4.32900817,2.99367174 C4.26819309,3.0221788 4.19821526,3.02389796 4.13607372,2.99841158 L2.62607372,2.48841158 C1.6328765,2.13294258 0.534354336,2.60999005 0.11607372,3.57841158 C-0.0616590074,4.06607557 -0.0343794173,4.60492224 0.191695202,5.07214312 C0.417769821,5.539364 0.823376593,5.89514914 1.31607372,6.05841158 L2.90607372,6.59841158 C3.03598391,6.64559567 3.10627256,6.78617298 3.06607372,6.91841158 L2.55607372,8.39841158 C2.24348455,9.38712136 2.73840286,10.4507616 3.69607372,10.8484116 C4.18083542,11.0379496 4.7217774,11.0225535 5.19497392,10.8057503 C5.66817044,10.5889471 6.03306887,10.1893168 6.20607372,9.69841158 L6.73607372,8.14841158 C6.78325781,8.0185014 6.92383512,7.94821274 7.05607372,7.98841158 L8.64607372,8.52841158 C9.13501307,8.70506863 9.67483686,8.67478908 10.1409534,8.44456146 C10.60707,8.21433385 10.9592007,7.80405286 11.1160737,7.30841158 C11.3668935,6.29186049 10.7912281,5.25391818 9.79607372,4.92841158 Z" id="Path" fill="#F6F6F6" fill-rule="nonzero"></path>
    </g>
</svg>