<?xml version="1.0" encoding="UTF-8"?>
<svg width="355.83px" height="93.006576px" viewBox="0 0 355.83 93.006576" version="1.1" xmlns="http://www.w3.org/2000/svg" xmlns:xlink="http://www.w3.org/1999/xlink">
    <title>LITTIL</title>
    <g id="LITTIL" stroke="none" stroke-width="1" fill="none" fill-rule="evenodd">
        <g id="Group" transform="translate(79.550000, 0.003214)" fill-rule="nonzero">
            <polygon id="Path" fill="#F39200" points="2.84217094e-14 93 2.84217094e-14 0 28.69 0 28.69 93"></polygon>
            <polygon id="Path" fill="#F39200" points="48.17 93 48.17 23.22 28.09 23.22 28.09 0 96.94 0 96.94 23.22 76.86 23.22 76.86 93"></polygon>
            <polygon id="Path" fill="#F9B233" points="117.02 93 117.02 23.22 96.94 23.22 96.94 0 165.8 0 165.8 23.22 145.71 23.22 145.71 93"></polygon>
            <polygon id="Path" fill="#F9B233" points="165.78 93 165.78 0 194.47 0 194.47 93"></polygon>
        </g>
        <path d="M287.43,81.363214 L287.43,11.593214 C287.599157,5.04004221 293.036258,-0.142195071 299.59,0.00321402241 L303.77,0.00321402241 C310.323742,-0.142195071 315.760843,5.04004221 315.93,11.593214 L315.93,58.113214 C316.077506,64.6781576 321.514884,69.8828247 328.08,69.743214 L343.66,69.743214 C346.815365,69.6680929 349.871124,70.8506388 352.153923,73.0302715 C354.436722,75.2099041 355.759221,78.2077486 355.83,81.363214 L355.83,81.363214 C355.764457,84.5221831 354.444251,87.5251545 352.160875,89.7090903 C349.877499,91.893026 346.818757,93.0783011 343.66,93.003214 L299.59,93.003214 C296.433709,93.0729287 293.379073,91.8855658 291.098463,89.7024826 C288.817854,87.5193994 287.498208,84.5195376 287.43,81.363214 L287.43,81.363214 Z" id="Path" fill="#F9B233" fill-rule="nonzero"></path>
        <path d="M-2.84217094e-14,81.363214 L-2.84217094e-14,11.593214 C0.163719647,5.03763111 5.60411075,-0.147741663 12.16,0.00321402241 L16.34,0.00321402241 C22.9034616,-0.142001676 28.3425256,5.05980279 28.49,11.623214 L28.49,58.143214 C28.6429338,64.709741 34.0831772,69.9128685 40.65,69.773214 L56.23,69.773214 C62.7934616,69.6279983 68.2325256,74.8298028 68.38,81.393214 L68.38,81.393214 C68.2270958,87.9526856 62.7896454,93.1484716 56.23,93.003214 L12.16,93.003214 C9.00370934,93.0729287 5.94907255,91.8855658 3.66846329,89.7024826 C1.38785403,87.5193994 0.0682079729,84.5195376 -2.84217094e-14,81.363214 Z" id="Path" fill="#F9B233" fill-rule="nonzero"></path>
    </g>
</svg>