<?xml version="1.0" encoding="UTF-8"?>
<svg width="64.0363373px" height="64.0174573px" viewBox="0 0 64.0363373 64.0174573" version="1.1" xmlns="http://www.w3.org/2000/svg" xmlns:xlink="http://www.w3.org/1999/xlink">
    <title>satrun</title>
    <defs>
        <linearGradient x1="50.8917435%" y1="0.107015986%" x2="50.8917435%" y2="100.134547%" id="linearGradient-1">
            <stop stop-color="#71B1E2" offset="0%"></stop>
            <stop stop-color="#3B76BB" offset="59%"></stop>
            <stop stop-color="#314899" offset="100%"></stop>
        </linearGradient>
        <linearGradient x1="-142.463613%" y1="-160.983875%" x2="448.981923%" y2="381.194915%" id="linearGradient-2">
            <stop stop-color="#71B1E2" offset="0%"></stop>
            <stop stop-color="#3B76BB" offset="59%"></stop>
            <stop stop-color="#314899" offset="100%"></stop>
        </linearGradient>
        <linearGradient x1="-51.9676373%" y1="-35.7669112%" x2="214.474995%" y2="159.70398%" id="linearGradient-3">
            <stop stop-color="#71B1E2" offset="0%"></stop>
            <stop stop-color="#3B76BB" offset="59%"></stop>
            <stop stop-color="#314899" offset="100%"></stop>
        </linearGradient>
        <linearGradient x1="57%" y1="-494.11194%" x2="57%" y2="544.472015%" id="linearGradient-4">
            <stop stop-color="#71B1E2" offset="0%"></stop>
            <stop stop-color="#3B76BB" offset="59%"></stop>
            <stop stop-color="#314899" offset="100%"></stop>
        </linearGradient>
        <linearGradient x1="-0.790955047%" y1="-6.86160084%" x2="84.8601428%" y2="72.0070779%" id="linearGradient-5">
            <stop stop-color="#71B1E2" offset="0%"></stop>
            <stop stop-color="#3B76BB" offset="59%"></stop>
            <stop stop-color="#314899" offset="100%"></stop>
        </linearGradient>
        <linearGradient x1="17.2705752%" y1="26.5990708%" x2="95.8842683%" y2="75.732246%" id="linearGradient-6">
            <stop stop-color="#EAF6FE" offset="0%"></stop>
            <stop stop-color="#D9ECFB" offset="52%"></stop>
            <stop stop-color="#B6D9F4" offset="100%"></stop>
        </linearGradient>
        <linearGradient x1="101.064734%" y1="-1728.2567%" x2="193.763887%" y2="-1728.2567%" id="linearGradient-7">
            <stop stop-color="#EAF6FE" offset="0%"></stop>
            <stop stop-color="#D9ECFB" offset="52%"></stop>
            <stop stop-color="#B6D9F4" offset="100%"></stop>
        </linearGradient>
        <linearGradient x1="419.497936%" y1="-2276.13636%" x2="734.499149%" y2="-2276.13636%" id="linearGradient-8">
            <stop stop-color="#EAF6FE" offset="0%"></stop>
            <stop stop-color="#D9ECFB" offset="52%"></stop>
            <stop stop-color="#B6D9F4" offset="100%"></stop>
        </linearGradient>
    </defs>
    <g id="satrun" stroke="none" stroke-width="1" fill="none" fill-rule="evenodd">
        <ellipse id="Oval" fill="url(#linearGradient-1)" fill-rule="nonzero" transform="translate(32.018169, 32.008729) rotate(-43.470000) translate(-32.018169, -32.008729) " cx="32.0181687" cy="32.0087287" rx="22.77" ry="22.52"></ellipse>
        <g id="Group" transform="translate(9.369813, 11.762890)" fill-rule="nonzero">
            <path d="M14.8631403,5.66046759 C15.529807,6.05380093 16.219807,6.43380093 16.9331403,6.80046759 C17.4846058,7.08790599 18.1278066,7.14400595 18.7207073,6.95637916 C19.3136079,6.76875236 19.8074356,6.35283327 20.0931403,5.80046759 L20.0931403,5.80046759 C20.3756912,5.25594246 20.4289983,4.62110405 20.2412108,4.03708481 C20.0534232,3.45306557 19.6401045,2.96826764 19.0931403,2.69046759 C18.4431403,2.35046759 17.8031403,2.00046759 17.1831403,1.64046759 C16.0977199,1.15514226 14.8208978,1.56093885 14.2148221,2.58385153 C13.6087463,3.6067642 13.8661129,4.92156758 14.8131403,5.64046759 L14.8631403,5.66046759 Z" id="Path" fill="url(#linearGradient-2)"></path>
            <path d="M12.8131403,17.2304676 C13.3655293,16.717275 13.7931158,16.084447 14.0631403,15.3804676 C14.8142526,16.1806755 15.973842,16.4488538 17.0000225,16.0596806 C18.026203,15.6705074 18.7163424,14.7008296 18.7479327,13.6037862 C18.7795229,12.5067428 18.1463261,11.4989585 17.1442406,11.0513797 C16.142155,10.6038009 14.969055,10.8048076 14.1731403,11.5604676 C14.1247419,11.6021612 14.0811396,11.6491176 14.0431403,11.7004676 C13.8088201,11.1262539 13.4697174,10.6006446 13.0431403,10.1504676 C11.1529365,8.14056531 7.99191696,8.04165914 5.97975668,9.92945909 C3.96759641,11.817259 3.86491183,14.9781581 5.75030523,16.9925735 C7.63569862,19.0069889 10.7964727,19.1134517 12.8131403,17.2304676 L12.8131403,17.2304676 Z" id="Path" fill="url(#linearGradient-3)"></path>
            <ellipse id="Oval" fill="url(#linearGradient-4)" transform="translate(31.351944, 3.809380) rotate(-43.470000) translate(-31.351944, -3.809380) " cx="31.3519438" cy="3.80938035" rx="2.71" ry="2.68"></ellipse>
            <path d="M39.1731403,4.59046759 C38.6931403,4.08046759 38.1731403,3.59046759 37.6931403,3.16046759 C38.5344724,4.23226152 38.6127353,5.71674579 37.8887652,6.8710634 C37.1647951,8.02538102 35.7943181,8.6012381 34.4631403,8.31046759 C32.5533092,7.88361734 30.6673502,7.35621641 28.8131403,6.73046759 C27.5541605,6.33679387 26.2059401,6.98901737 25.7331403,8.22046759 C25.5231614,8.78219497 25.550476,9.40513733 25.8088153,9.94633004 C26.0671547,10.4875228 26.5343356,10.9004941 27.1031403,11.0904676 C29.3980119,11.8524497 31.7352997,12.4801785 34.1031403,12.9704676 C35.4084386,13.2641307 36.2752412,14.5036583 36.1031403,15.8304676 C36.0357538,16.452891 35.7485416,17.0308613 35.2931403,17.4604676 C34.6697121,18.0467236 33.8052678,18.3027178 32.9631403,18.1504676 C31.8031403,17.9304676 30.6231403,17.6704676 29.4331403,17.3604676 C28.3889938,17.122597 27.3150596,17.6144753 26.8131403,18.5604676 C26.4771914,19.1843286 26.4475446,19.9282132 26.73278,20.5768308 C27.0180155,21.2254485 27.5862913,21.7063913 28.2731403,21.8804676 C31.6572334,22.7848604 35.125586,23.3377862 38.6231403,23.5304676 C39.3267163,23.5591165 39.9680259,23.9417906 40.3273398,24.5473759 C40.6866537,25.1529611 40.7151783,25.899221 40.4031403,26.5304676 L40.4031403,26.5304676 C40.0460749,27.2607769 39.3060516,27.725713 38.4931403,27.7304676 C37.5531403,27.7304676 36.3531403,27.7304676 35.7731403,27.7304676 C32.3421452,27.527403 28.9427624,26.9574867 25.6331403,26.0304676 C26.5707892,24.3583526 26.1902526,22.2560942 24.7259555,21.0187632 C23.2616585,19.7814322 21.1253766,19.756979 19.6331403,20.9604676 C18.8997946,21.603745 18.4267981,22.4928362 18.3031403,23.4604676 C17.5431403,23.1404676 16.8031403,22.8204676 16.0731403,22.4604676 C14.9352461,21.9173889 13.5712665,22.3559676 12.9631403,23.4604676 C12.6607482,24.0122167 12.5965001,24.6634394 12.7852433,25.2636428 C12.9739865,25.8638461 13.3993879,26.361091 13.9631403,26.6404676 C15.0931403,27.1704676 16.2531403,27.6404676 17.4431403,28.1504676 C23.4842222,30.6544903 29.9115687,32.0989519 36.4431403,32.4204676 C36.0831403,32.8104676 35.7031403,33.2004676 35.3031403,33.5704676 C34.9031403,33.9404676 34.5231403,34.2904676 34.1131403,34.6304676 C28.9247782,34.4529287 23.7989886,33.4399268 18.9331403,31.6304676 C13.3073029,29.7655749 8.10464062,26.8091306 3.62314032,22.9304676 L3.44314032,22.7604676 C2.08603282,21.5446905 0.949297818,20.1034729 0.0831403248,18.5004676 C-0.158104861,21.3052167 0.126782596,24.1303507 0.923140325,26.8304676 C2.18984899,27.9163477 3.52601699,28.9184737 4.92314032,29.8304676 C8.80042275,32.3942518 12.9828087,34.463609 17.3731403,35.9904676 L17.4731403,35.9904676 C18.141227,36.1583824 18.668983,36.6699621 18.8576078,37.3324995 C19.0462327,37.995037 18.8670697,38.7078769 18.3876078,39.2024995 C17.908146,39.6971221 17.201227,39.8983824 16.5331403,39.7304676 C12.1803617,39.1357329 8.10173484,37.2634622 4.81314032,34.3504676 C5.24314032,34.8904676 5.68314032,35.4104676 6.16314032,35.9104676 C14.9224107,44.4351826 28.8496512,44.5235863 37.7164333,36.1107534 C46.5832154,27.6979204 47.2261882,13.7852489 39.1731403,4.59046759 Z M38.1731403,18.1504676 C37.4081392,17.3616073 37.1952391,16.1888725 37.6341407,15.1814537 C38.0730424,14.1740349 39.0768512,13.5313832 40.1754845,13.5544516 C41.2741178,13.57752 42.2500657,14.2617415 42.6462929,15.2866957 C43.0425201,16.31165 42.7805805,17.4744145 41.9831403,18.2304676 C41.4670299,18.7324585 40.7712257,19.0066051 40.0514071,18.9915697 C39.3315885,18.9765344 38.6478389,18.673572 38.1531403,18.1504676 L38.1731403,18.1504676 Z M22.0131403,40.9204676 C21.2481392,40.1316073 21.0352391,38.9588725 21.4741407,37.9514537 C21.9130424,36.9440349 22.9168512,36.3013832 24.0154845,36.3244516 C25.1141178,36.34752 26.0900657,37.0317415 26.4862929,38.0566957 C26.8825201,39.08165 26.6205805,40.2444145 25.8231403,41.0004676 C24.747795,42.0275204 23.0444261,41.9917541 22.0131403,40.9204676 L22.0131403,40.9204676 Z" id="Shape" fill="url(#linearGradient-5)"></path>
        </g>
        <path d="M58.9129534,41.4933579 C60.2329534,37.8533579 58.6929534,33.5933579 54.5529534,29.4233579 C54.8001461,31.8441067 54.6549451,34.2888866 54.1229534,36.6633579 C54.6835625,37.661178 54.8273276,38.840052 54.5229534,39.9433579 C54.0425517,40.9862066 53.1743688,41.8005766 52.1029534,42.2133579 C50.3432297,42.9771103 48.4592002,43.4142323 46.5429534,43.5033579 L46.2929534,43.5033579 C40.3490093,43.688857 34.4266145,42.7034901 28.8629534,40.6033579 C23.2346434,38.7440294 18.030939,35.7869929 13.5529534,31.9033579 L13.3729534,31.7433579 C11.9523779,30.4769545 10.7791781,28.9578982 9.91295339,27.2633579 C9.35987721,26.2628196 9.21991368,25.0856904 9.52295339,23.9833579 C10.001862,22.9430415 10.8658702,22.1292246 11.9329534,21.7133579 C13.0619124,19.5354261 14.5340741,17.5534102 16.2929534,15.8433579 C10.4029534,16.4933579 6.45295339,18.8533579 5.18295339,22.4933579 C3.91295339,26.1333579 5.30295339,30.1033579 9.12295339,34.1433579 L9.53295339,34.5633579 L10.1929534,35.2133579 C11.6494902,36.5680554 13.2110399,37.8052575 14.8629534,38.9133579 C18.7390832,41.479146 22.921728,43.5486314 27.3129534,45.0733579 C31.6950534,46.6530972 36.2568177,47.6810058 40.8929534,48.1333579 C42.8879213,48.3159842 44.8942678,48.3393916 46.8929534,48.2033579 L47.8129534,48.1233579 C51.8129534,47.6933579 54.9429534,46.4733579 56.9429534,44.5833579 C57.8355714,43.7342495 58.5200242,42.6904589 58.9429534,41.5333579 L58.9129534,41.4933579 Z" id="Path" fill="url(#linearGradient-6)" fill-rule="nonzero"></path>
        <path d="M56.8829534,44.5833579 C54.8829534,46.4733579 51.7729534,47.6933579 47.7529534,48.1233579 L46.8329534,48.2033579 C44.8342678,48.3393916 42.8279213,48.3159842 40.8329534,48.1333579 C36.1968177,47.6810058 31.6350534,46.6530972 27.2529534,45.0733579 C22.861728,43.5486314 18.6790832,41.479146 14.8029534,38.9133579 C13.1682919,37.8031089 11.6235246,36.5659575 10.1829534,35.2133579 L9.52295339,34.5633579 L9.11295339,34.1433579 C8.65125294,33.6623002 8.21403421,33.1583306 7.80295339,32.6333579 C8.33295339,33.1233579 8.89295339,33.6333579 9.48295339,34.0633579 C10.2829534,34.7033579 11.1229534,35.3233579 12.0229534,35.9233579 C15.8990832,38.489146 20.081728,40.5586314 24.4729534,42.0833579 C28.8550534,43.6630972 33.4168177,44.6910058 38.0529534,45.1433579 C40.0479213,45.3259842 42.0542678,45.3493916 44.0529534,45.2133579 C46.646026,45.0886497 49.1900172,44.4602941 51.5429534,43.3633579 C52.4734829,42.9029069 53.3324022,42.3100842 54.0929534,41.6033579 C54.9908485,40.754719 55.6760456,39.7063675 56.0929534,38.5433579 C57.0929534,35.9433579 56.5229534,33.0033579 54.6229534,30.0233579 C54.6229534,29.8333579 54.6229534,29.6433579 54.6229534,29.4633579 C58.7629534,33.6333579 60.3029534,37.8933579 58.9829534,41.5333579 C58.5600242,42.6904589 57.8755714,43.7342495 56.9829534,44.5833579 L56.8829534,44.5833579 Z" id="Path" fill="url(#linearGradient-7)" fill-rule="nonzero"></path>
        <path d="M9.91295339,27.3233579 C9.35465791,26.3245078 9.21444403,25.1452731 9.52295339,24.0433579 C10.001862,23.0030415 10.8658702,22.1892246 11.9329534,21.7733579 C12.4551806,20.7626774 13.0535755,19.7932108 13.7229534,18.8733579 C14.49231,17.8017486 15.3521252,16.7980732 16.2929534,15.8733579 C14.8969363,16.011385 13.5173211,16.28262 12.1729534,16.6833579 C11.8029534,17.1733579 11.4529534,17.6833579 11.1729534,18.1833579 C10.5639034,19.1336999 9.80000582,19.9753393 8.91295339,20.6733579 C8.41142788,21.050924 8.02386047,21.5596062 7.79295339,22.1433579 C7.25295339,23.6333579 7.99295339,25.7133579 9.79295339,27.9533579 C10.3762986,28.6594601 11.0042494,29.3274929 11.6729534,29.9533579 L11.6729534,29.9533579 C10.9835919,29.1432481 10.3989927,28.2495505 9.93295339,27.2933579 L9.91295339,27.3233579 Z" id="Path" fill="url(#linearGradient-8)" fill-rule="nonzero"></path>
    </g>
</svg>