<?xml version="1.0" encoding="UTF-8"?>
<svg width="34.1614247px" height="24.026105px" viewBox="0 0 34.1614247 24.026105" version="1.1" xmlns="http://www.w3.org/2000/svg" xmlns:xlink="http://www.w3.org/1999/xlink">
    <title>Saturn orange</title>
    <g id="Saturn-orange" stroke="none" stroke-width="1" fill="none" fill-rule="evenodd">
        <path d="M6.55062828,11.5844143 L7.22062828,9.83441433 L7.05062828,9.69441433 C3.79062828,11.5444143 1.40062828,13.5644143 0.450628281,15.3744143 L2.93062828,14.6844143 C3.80069519,13.4622069 4.9400209,12.4563157 6.26062828,11.7444143 L6.55062828,11.5844143 Z" id="Path" fill="#FFE02E" fill-rule="nonzero"></path>
        <path d="M1.46062828,15.0944143 L2.93062828,14.6744143 C3.80335848,13.453469 4.94642892,12.4507156 6.27062828,11.7444143 L6.56062828,11.5844143 L7.22062828,9.83441433 L7.05062828,9.69441433 C6.05062828,10.2344143 5.23062828,10.7844143 4.45062828,11.3344143 C3.09839976,12.2584134 2.05634307,13.5688258 1.46062828,15.0944143 Z" id="Path" fill="#FBC706" fill-rule="nonzero"></path>
        <path d="M27.3706283,3.80441433 L27.2006283,4.03441433 L27.7706283,5.38441433 L28.0606283,5.38441433 C29.8306283,5.46441433 31.0606283,5.86441433 31.4106283,6.57441433 L33.8906283,5.87441433 C33.1206283,4.53441433 30.7306283,3.80441433 27.3706283,3.80441433 Z" id="Path" fill="#FFE02E" fill-rule="nonzero"></path>
        <path d="M28.0606283,5.44441433 C29.8306283,5.53441433 31.0606283,5.93441433 31.4106283,6.63441433 L32.8106283,6.24441433 C32.6406283,5.14441433 31.5906283,4.37441433 29.9006283,3.97441433 C29.0614219,3.8698009 28.2163168,3.81969585 27.3706283,3.82441433 L27.2006283,4.05441433 L27.7706283,5.40441433 L28.0606283,5.44441433 Z" id="Path" fill="#FBC706" fill-rule="nonzero"></path>
        <path d="M27.9906283,11.4344143 L27.1106283,5.15441433 L27.5906283,4.25441433 C27.5252049,4.11041132 27.4517562,3.97019111 27.3706283,3.83441433 L27.3706283,3.83441433 C27.138743,3.42724139 26.874562,3.03933011 26.5806283,2.67441433 L26.5806283,2.67441433 L24.8306283,2.21441433 L12.0606283,3.86441433 L9.87062828,5.38441433 L9.87062828,5.38441433 C9.11919267,6.23275099 8.44955302,7.15015732 7.87062828,8.12441433 L7.87062828,8.12441433 L8.13062828,8.58441433 L6.50062828,15.9744143 L5.73062828,16.7044143 C5.73062828,16.8944143 5.78062828,17.0944143 5.81062828,17.2744143 L6.81062828,18.1544143 L11.1506283,17.6044143 L18.5306283,15.8744143 L27.8506283,11.7144143 L27.9906283,11.4344143 Z" id="Path" fill="#F49640" fill-rule="nonzero"></path>
        <path d="M7.87062828,8.12441433 L8.12062828,8.58441433 L6.50062828,15.9744143 L5.73062828,16.7044143 C5.74747125,16.8956641 5.77417343,17.0859171 5.81062828,17.2744143 L6.81062828,18.1544143 L9.81062828,17.7644143 C9.20062828,14.0544143 10.4506283,9.54441433 13.5206283,5.65441433 C14.1508508,4.84534828 14.8465276,4.08946863 15.6006283,3.39441433 L11.9806283,3.86441433 L9.79062828,5.38441433 L9.79062828,5.38441433 C9.03919267,6.23275099 8.36955302,7.15015732 7.79062828,8.12441433 L7.87062828,8.12441433 Z" id="Path" fill="#F1851C" fill-rule="nonzero"></path>
        <path d="M17.2606283,21.6944143 L22.6506283,19.9144143 L23.6506283,19.3544143 L23.6506283,19.3544143 C25.0898443,17.8983507 26.2701085,16.2074279 27.1406283,14.3544143 L26.6706283,14.1344143 L18.4706283,17.5644143 L12.1406283,18.9844143 L17.2606283,21.6944143 Z" id="Path" fill="#F49640" fill-rule="nonzero"></path>
        <path d="M23.8206283,4.17441433 C24.8319743,3.86471374 25.7706216,3.35457936 26.5806283,2.67441433 C22.7906283,-1.90558567 14.8806283,-0.325585674 9.86062828,5.38441433 L12.2106283,4.70441433 C13.4457074,4.29053738 14.7973978,4.41012393 15.9406283,5.03441433 C17.080955,5.6668221 18.4347536,5.79022465 19.6706283,5.37441433 L23.8206283,4.17441433 Z" id="Path" fill="#F6A85F" fill-rule="nonzero"></path>
        <path d="M14.5406283,4.52441433 C16.289894,2.58082765 18.4390923,1.03886315 20.8406283,0.004414326 C17.1806283,-0.105585674 12.9606283,1.84441433 9.84062828,5.38441433 L12.2006283,4.70441433 C12.9588228,4.47799105 13.7567243,4.41661401 14.5406283,4.52441433 L14.5406283,4.52441433 Z" id="Path" fill="#F49640" fill-rule="nonzero"></path>
        <path d="M28.2606283,10.8044143 C28.3406283,10.3944143 28.4006283,9.97441433 28.4406283,9.55441433 L28.2106283,9.21441433 L28.2106283,6.68441433 L28.3406283,6.40441433 C28.2806761,6.08630123 28.2005136,5.77233173 28.1006283,5.46441433 L28.1006283,5.46441433 C27.9708814,5.0576365 27.8138587,4.66006842 27.6306283,4.27441433 L27.3806283,4.52441433 C26.3730991,5.55628032 25.1209297,6.31652602 23.7406283,6.73441433 L19.1806283,8.05441433 C17.8229725,8.51339759 16.3336327,8.36774089 15.0906283,7.65441433 C13.844933,6.9381259 12.3512796,6.79240361 10.9906283,7.25441433 L7.91062828,8.14441433 C7.62062828,8.64441433 7.34062828,9.14441433 7.09062828,9.72441433 L7.09062828,9.72441433 C6.92062828,10.0844143 6.77062828,10.4344143 6.63062828,10.8044143 L6.80062828,10.9244143 L6.14062828,13.9244143 L5.77062828,14.3844143 C5.70056611,15.1528206 5.70056611,15.9260081 5.77062828,16.6944143 L11.4306283,15.0544143 C12.2716317,14.8064504 13.0492964,14.3800991 13.7106283,13.8044143 L14.8306283,12.8044143 C15.5010207,12.2109182 16.2927342,11.7706982 17.1506283,11.5144143 L20.4706283,10.5144143 C21.2003862,10.2827533 21.9812998,10.2653996 22.7206283,10.4644143 L26.7806283,11.6244143 L27.1706283,11.7244143 L28.0906283,11.1544143 L28.2606283,10.8044143 Z" id="Path" fill="#F6A85F" fill-rule="nonzero"></path>
        <path d="M7.06062828,9.69441433 C6.89062828,10.0544143 6.74062828,10.4144143 6.60062828,10.7744143 L6.77062828,10.8944143 L6.11062828,13.8944143 L5.74062828,14.3644143 C5.67061999,15.1294828 5.67061999,15.8993459 5.74062828,16.6644143 L9.74062828,15.5044143 C9.88880434,12.437775 10.8896608,9.47330045 12.6306283,6.94441433 C12.0614482,6.94557533 11.4954843,7.02979615 10.9506283,7.19441433 L7.87062828,8.07441433 C7.58062828,8.59441433 7.30062828,9.12441433 7.05062828,9.66441433 L7.06062828,9.69441433 Z" id="Path" fill="#F49640" fill-rule="nonzero"></path>
        <path d="M10.7206283,12.9544143 C11.456422,12.7305486 12.1375431,12.355932 12.7206283,11.8544143 C13.6306283,11.0844143 13.6606283,9.76441433 12.7806283,9.51441433 C12.1222556,9.34501532 11.4297138,9.36232886 10.7806283,9.56441433 L6.60062828,10.8044143 C6.48062828,11.1144143 6.37062828,11.4444143 6.27062828,11.8044143 L6.27062828,11.8044143 C6.0037313,12.6677919 5.82285149,13.5554428 5.73062828,14.4544143 L10.7206283,12.9544143 Z" id="Path" fill="#F9B980" fill-rule="nonzero"></path>
        <path d="M6.26062828,11.7344143 C5.99773223,12.6016989 5.82022193,13.4925996 5.73062828,14.3944143 L10.0606283,13.1644143 C10.3234219,11.8849867 10.7327893,10.6401074 11.2806283,9.45441433 L10.8506283,9.55441433 L6.60062828,10.8044143 C6.48062828,11.1244143 6.36062828,11.4444143 6.26062828,11.8044143 L6.26062828,11.7344143 Z" id="Path" fill="#F6A85F" fill-rule="nonzero"></path>
        <path d="M28.3006283,6.38441433 L26.9506283,7.44441433 C26.3206283,7.94441433 26.2706283,8.83441433 26.8506283,9.02441433 L28.4406283,9.54441433 C28.5457433,8.48981761 28.4985937,7.42558343 28.3006283,6.38441433 L28.3006283,6.38441433 Z" id="Path" fill="#F9B980" fill-rule="nonzero"></path>
        <path d="M18.6406283,20.8044143 C17.6221642,21.1536663 16.5012121,21.0327793 15.5806283,20.4744143 L13.8506283,19.3144143 L13.1006283,18.9944143 L7.06062828,19.8044143 L6.78062828,20.1644143 C9.99062828,25.8844143 18.1806283,24.8544143 23.6206283,19.3444143 L18.6406283,20.8044143 Z" id="Path" fill="#F6A85F" fill-rule="nonzero"></path>
        <path d="M13.1606283,23.3944143 C11.8069741,22.3940528 10.7999913,20.9954655 10.2806283,19.3944143 L7.06062828,19.8044143 L6.77062828,20.1644143 C8.23295728,22.766733 11.0880343,24.2667254 14.0606283,23.9944143 C13.7475473,23.8147673 13.446872,23.6143172 13.1606283,23.3944143 L13.1606283,23.3944143 Z" id="Path" fill="#F49640" fill-rule="nonzero"></path>
        <path d="M33.7406283,5.69441433 L31.2406283,6.39441433 C31.4420806,6.6151751 31.5496786,6.90568962 31.5406283,7.20441433 C31.4806283,9.53441433 24.9706283,13.2944143 17.0006283,15.6044143 C9.03062828,17.9144143 2.60062828,17.8744143 2.66062828,15.5444143 C2.69864991,15.096194 2.87315543,14.6704005 3.16062828,14.3244143 L0.650628281,15.0244143 C0.277090943,15.5964364 0.0535562773,16.2532844 0.000628281149,16.9344143 C-0.0793717189,20.5344143 7.49062828,21.2344143 16.9206283,18.5144143 C26.3506283,15.7944143 34.0606283,10.6744143 34.1606283,7.07441433 C34.1736677,6.5810825 34.0262888,6.0968375 33.7406283,5.69441433 L33.7406283,5.69441433 Z" id="Path" fill="#FFE02E" fill-rule="nonzero"></path>
        <path d="M32.8306283,6.61441433 C32.8398597,6.39811157 32.8128194,6.18178926 32.7506283,5.97441433 L31.2306283,6.40441433 C31.4360527,6.6193624 31.5475785,6.90717109 31.5406283,7.20441433 C31.4806283,9.54441433 24.9706283,13.3044143 16.9906283,15.6144143 C9.01062828,17.9244143 2.60062828,17.8744143 2.66062828,15.5444143 C2.69864991,15.096194 2.87315543,14.6704005 3.16062828,14.3244143 L1.56062828,14.7744143 C1.4515575,15.0732857 1.38752426,15.3867116 1.37062828,15.7044143 C1.30062828,18.9844143 8.27062828,19.6244143 16.9606283,17.1144143 C25.6506283,14.6044143 32.7506283,9.90441433 32.8306283,6.61441433 L32.8306283,6.61441433 Z" id="Path" fill="#FBC706" fill-rule="nonzero"></path>
    </g>
</svg>