<?xml version="1.0" encoding="UTF-8"?>
<svg width="33.6693199px" height="36.9319207px" viewBox="0 0 33.6693199 36.9319207" version="1.1" xmlns="http://www.w3.org/2000/svg" xmlns:xlink="http://www.w3.org/1999/xlink">
    <title>Star</title>
    <g id="Star" stroke="none" stroke-width="1" fill="none" fill-rule="evenodd">
        <path d="M22.2240491,36.7159604 L13.2240491,26.9559604 C13.1303422,26.8502228 13.0033318,26.7796615 12.8640491,26.7559604 L0.55404909,24.4459604 C0.309501422,24.3880315 0.112855403,24.2067827 0.0352235805,23.9677584 C-0.0424082418,23.7287341 0.0102096102,23.4665278 0.17404909,23.2759604 L8.73404909,14.1259604 C8.82794068,14.0194645 8.88722981,13.8869359 8.90404909,13.7459604 L10.3840491,0.565960357 C10.3980392,0.319969355 10.5609932,0.107535943 10.7949577,0.0302835328 C11.0289221,-0.0469688777 11.2863324,0.0266649988 11.4440491,0.215960357 L20.4440491,9.97596036 C20.5349307,10.0851622 20.6633176,10.1564883 20.8040491,10.1759604 L33.1140491,12.4959604 C33.3584739,12.5505436 33.556062,12.7298636 33.6340276,12.9678639 C33.7119932,13.2058643 33.6588024,13.467336 33.4940491,13.6559604 L24.9040491,22.8159604 C24.8101575,22.9224562 24.7508684,23.0549848 24.7340491,23.1959604 L23.2840491,36.3659604 C23.270059,36.6119514 23.1071049,36.8243848 22.8731405,36.9016372 C22.6391761,36.9788896 22.3817658,36.9052557 22.2240491,36.7159604 L22.2240491,36.7159604 Z" id="Path" fill="#EDEDED" fill-rule="nonzero"></path>
    </g>
</svg>